Coordinates
version=1
nRows=16
nColumns=22
inDegrees=yes

Units are S.I. units (second, meters, Newtons, ...)
If the header above contains a line with 'inDegrees', this indicates whether rotational values are in degrees (yes) or radians (no).

endheader
time	pelvis_tilt	pelvis_list	pelvis_rotation	pelvis_tx	pelvis_ty	pelvis_tz	hip_flexion_r	hip_adduction_r	hip_rotation_r	knee_angle_r	ankle_angle_r	subtalar_angle_r	hip_flexion_l	hip_adduction_l	hip_rotation_l	knee_angle_l	ankle_angle_l	subtalar_angle_l	lumbar_extension	lumbar_bending	lumbar_rotation
      0.01000000	     -5.23093625	     -2.92041173	     -2.36417157	      1.10240459	      0.94224573	     -0.27603508	      7.46742386	      1.75524008	     -2.36817408	    -13.69187252	     11.26792569	     -1.62943211	      6.49592434	     -5.16584617	     -6.99876273	    -13.36006983	     12.00257584	     -1.81917485	     -0.90537084	      0.89132095	     -0.89408674
      0.02000000	     -5.24060111	     -2.92024678	     -2.36297825	      1.10249547	      0.94224283	     -0.27605553	      7.47086579	      1.75468685	     -2.36827194	    -13.68957320	     11.26693039	     -1.63072019	      6.49930112	     -5.16508637	     -6.99755741	    -13.35682598	     12.00534402	     -1.81562521	     -0.92069628	      0.89523958	     -0.89229688
      0.03000000	     -5.24088136	     -2.91939449	     -2.34482179	      1.10256791	      0.94225093	     -0.27609802	      7.46672816	      1.75095478	     -2.37548612	    -13.69389077	     11.25459965	     -1.64528546	      6.51839776	     -5.16383719	     -6.97297392	    -13.39476527	     12.02543857	     -1.77499145	     -0.95679383	      0.89646044	     -0.89703937
      0.04000000	     -5.25420229	     -2.91780813	     -2.34097664	      1.10268398	      0.94224416	     -0.27611588	      7.47022384	      1.74919001	     -2.37808085	    -13.68798191	     11.25547324	     -1.64658249	      6.52464572	     -5.16193674	     -6.97378570	    -13.39100386	     12.02678685	     -1.77194990	     -0.97476275	      0.90042592	     -0.89887492
      0.05000000	     -5.26323237	     -2.91279973	     -2.30170395	      1.10277364	      0.94223624	     -0.27617916	      7.46258286	      1.73887834	     -2.41769343	    -13.67175399	     11.25777128	     -1.66257483	      6.56311122	     -5.15632277	     -6.94762288	    -13.43967401	     12.03238568	     -1.73402758	     -1.00389660	      0.89732921	     -0.93630851
      0.06000000	     -5.27747814	     -2.91184114	     -2.29296298	      1.10288625	      0.94222450	     -0.27619884	      7.46775718	      1.73773156	     -2.42005678	    -13.66794687	     11.25814541	     -1.66363715	      6.57025821	     -5.15441195	     -6.94711424	    -13.43296285	     12.03379187	     -1.73195899	     -1.02400278	      0.90302396	     -0.93520636
      0.07000000	     -5.29073174	     -2.92084331	     -2.24451665	      1.10295805	      0.94220709	     -0.27626120	      7.47529589	      1.74096718	     -2.48755442	    -13.67102753	     11.25342161	     -1.68226801	      6.60892687	     -5.16050815	     -6.87879857	    -13.47096244	     12.03902506	     -1.69546903	     -1.05063753	      0.91585198	     -0.95938247
      0.08000000	     -5.30501475	     -2.91993830	     -2.23391061	      1.10305696	      0.94219232	     -0.27626871	      7.48083965	      1.74140396	     -2.48880975	    -13.66619877	     11.25364952	     -1.68296788	      6.61629398	     -5.15855134	     -6.88048021	    -13.46218269	     12.04056454	     -1.69449986	     -1.07028231	      0.91942735	     -0.95825194
      0.09000000	     -5.32550400	     -2.93141801	     -2.19327693	      1.10314061	      0.94216683	     -0.27630824	      7.49261255	      1.74954216	     -2.54977470	    -13.66244279	     11.24445759	     -1.69677953	      6.64680870	     -5.16790855	     -6.82750997	    -13.47424425	     12.04262539	     -1.67213138	     -1.08218805	      0.93400187	     -0.96474611
      0.10000000	     -5.33846733	     -2.93059349	     -2.17907932	      1.10322747	      0.94215252	     -0.27630892	      7.49778873	      1.74996402	     -2.55006527	    -13.65943239	     11.24437404	     -1.69733468	      6.65448135	     -5.16704614	     -6.82876138	    -13.46597710	     12.04371898	     -1.67144871	     -1.10117357	      0.93648954	     -0.96188058
      0.11000000	     -5.35833800	     -2.94003910	     -2.14463664	      1.10330410	      0.94212699	     -0.27633013	      7.51079913	      1.75797658	     -2.60011233	    -13.65772872	     11.23722092	     -1.70546117	      6.67951848	     -5.17429951	     -6.77881814	    -13.47015617	     12.03990892	     -1.65802153	     -1.11068940	      0.94760715	     -0.95002373
      0.12000000	     -5.37306198	     -2.94129105	     -2.11623671	      1.10340263	      0.94210874	     -0.27633966	      7.51588378	      1.76000285	     -2.60881694	    -13.65619663	     11.23608326	     -1.70736195	      6.69001723	     -5.17509617	     -6.77324001	    -13.45991706	     12.04127571	     -1.65560650	     -1.12028582	      0.95006053	     -0.94946364
      0.13000000	     -5.40720580	     -2.95148562	     -2.06437615	      1.10347597	      0.94206191	     -0.27638603	      7.54236320	      1.76534434	     -2.68543234	    -13.65216626	     11.22831282	     -1.71879699	      6.72878535	     -5.18022327	     -6.69648422	    -13.45467071	     12.03877433	     -1.64094664	     -1.11077530	      0.96598973	     -0.97855537
      0.14000000	     -5.42201737	     -2.95202182	     -2.03780799	      1.10357559	      0.94204083	     -0.27638007	      7.54537676	      1.76679820	     -2.69484782	    -13.64602870	     11.23077400	     -1.72013093	      6.73825424	     -5.18159401	     -6.69184062	    -13.44433683	     12.03909838	     -1.64011046	     -1.11799891	      0.96594892	     -0.96260966
      0.15000000	     -5.45758868	     -2.95820342	     -1.98759220	      1.10365424	      0.94199100	     -0.27641128	      7.57503273	      1.76941634	     -2.76653619	    -13.64520791	     11.23258486	     -1.72945332	      6.76886265	     -5.18197773	     -6.61797803	    -13.42268230	     12.03213322	     -1.63423335	     -1.10278409	      0.97606270	     -0.98234681
      0.16000000	     -5.47773056	     -2.96027788	     -1.95721700	      1.10374822	      0.94195986	     -0.27639769	      7.58323178	      1.77224427	     -2.79224085	    -13.63667191	     11.23870262	     -1.73215088	      6.77957691	     -5.18437446	     -6.60162660	    -13.40288620	     12.03158165	     -1.63423455	     -1.10097124	      0.97736973	     -0.96308818
